============== BAD MEETS EVIL - LIGHTERS FT BRUNO MARS 1080p =====================

Format                           : MPEG-4
Format profile                   : Base Media / Version 2
Codec ID                         : mp42
File size                        : 104 MiB
Duration                         : 5mn 8s
Overall bit rate                 : 2 833 Kbps
Encoded date                     : UTC 2011-08-18 23:55:34
Tagged date                      : UTC 2011-08-18 23:55:34

Video
ID                               : 1
Format                           : AVC
Format/Info                      : Advanced Video Codec
Format profile                   : High@L4.0
Format settings, CABAC           : Yes
Format settings, ReFrames        : 1 frame
Codec ID                         : avc1
Codec ID/Info                    : Advanced Video Coding
Duration                         : 5mn 8s
Bit rate mode                    : Variable
Bit rate                         : 2 678 Kbps
Maximum bit rate                 : 5 060 Kbps
Width                            : 1 920 pixels
Height                           : 1 080 pixels
Display aspect ratio             : 16:9
Frame rate mode                  : Variable
Frame rate                       : 23.976 fps
Minimum frame rate               : 23.810 fps
Maximum frame rate               : 24.390 fps
Color space                      : YUV
Chroma subsampling               : 4:2:0
Bit depth                        : 8 bits
Scan type                        : Progressive
Bits/(Pixel*Frame)               : 0.054
Stream size                      : 98.4 MiB (95%)
Tagged date                      : UTC 2011-08-18 23:55:36

Audio
ID                               : 2
Format                           : AAC
Format/Info                      : Advanced Audio Codec
Format version                   : Version 4
Format profile                   : LC
Format settings, SBR             : No
Codec ID                         : 40
Duration                         : 5mn 8s
Bit rate mode                    : Variable
Bit rate                         : 150 Kbps
Maximum bit rate                 : 177 Kbps
Channel(s)                       : 2 channels
Channel positions                : Front: L R
Sampling rate                    : 44.1 KHz
Stream size                      : 5.50 MiB (5%)

========================== SCREEN SHOTS =====================================

              http://bayimg.com/fajLgaADM
              http://bayimg.com/fAjlhaADm
              http://bayimg.com/faJliaadM

==============  MORE STUFF HERE =============================================

                http://thepiratebay.org/user/HaUnTiNg.SuMMeR/
==================================================================================

               